<svg id="Layer_1" xmlns="http://www.w3.org/2000/svg" width="1499.6" height="387.8" viewBox="0 0 1499.6 387.8"><style>.st0{fill:#5f6368}.st1{fill:#5f6268}.st2{fill:#ea4335}.st3{fill:url(#SVGID_1_)}.st4{fill:#fbbc04}.st5{fill:#34a853}</style><g id="_x28_product_name_here_x29_"><path class="st0" d="M183.3 319.8c0 19-14.7 33.1-32.8 33.1s-32.8-14-32.8-33.1c0-19.2 14.7-33.1 32.8-33.1 18.1.1 32.8 14 32.8 33.1zm-14.3 0c0-11.9-8.6-20-18.5-20s-18.5 8.1-18.5 20c0 11.8 8.6 20 18.5 20 9.9.1 18.5-8.2 18.5-20zm85.7 0c0 19-14.7 33.1-32.8 33.1s-32.8-14-32.8-33.1c0-19.2 14.7-33.1 32.8-33.1 18.1.1 32.8 14 32.8 33.1zm-14.4 0c0-11.9-8.6-20-18.5-20s-18.5 8.1-18.5 20c0 11.8 8.6 20 18.5 20 10 .1 18.5-8.2 18.5-20zm82.9-31v59.3c0 24.4-14.3 34.4-31.1 34.4-15.9 0-25.4-10.8-29-19.5l12.5-5.3c2.2 5.4 7.7 11.8 16.5 11.8 10.8 0 17.5-6.8 17.5-19.4v-4.8h-.5c-3.2 4-9.4 7.5-17.2 7.5-16.4 0-31.4-14.4-31.4-32.9 0-18.7 15-33.2 31.4-33.2 7.8 0 14 3.5 17.2 7.4h.5v-5.3h13.6zM310.6 320c0-11.6-7.7-20.2-17.5-20.2-9.9 0-18.2 8.5-18.2 20.2 0 11.5 8.3 19.9 18.2 19.9 9.8 0 17.5-8.4 17.5-19.9zm36.6-66.3v97.2h-14.4v-97.2h14.4zm54.7 76.9l11.2 7.4c-3.6 5.4-12.2 14.7-27.2 14.8-18.6.1-32.2-14.3-32.3-32.9-.1-19.7 13.4-33.2 30.3-33.3 17-.1 25.4 13.5 28.1 20.9l1.5 3.7-43.6 18.6c3.4 6.6 8.6 10 15.9 9.9 7.3.1 12.4-3.6 16.1-9.1zm-34.4-11.7l29.2-12.5c-1.6-4.1-6.5-7-12.2-6.9-7.4.1-17.5 6.7-17 19.4zm-301.8 34c-28 0-51.6-23-51.6-51.3s23.5-51.3 51.6-51.3c15.5 0 26.5 6.1 34.8 14.2l-9.8 9.9c-5.9-5.6-14-10-25-10-20.4 0-36.4 16.7-36.4 37.3 0 20.7 16 37.3 36.4 37.3 13.3 0 20.8-5.4 25.7-10.3 4-4 6.6-9.8 7.6-17.7H65.8v-14h46.7c.5 2.5.7 5.5.7 8.8 0 10.5-2.9 23.5-12 32.8-9 9.3-20.4 14.3-35.5 14.3z"/><path class="st1" d="M526.9 257.5c-10.6 18.6-21.2 37.2-31.9 55.7-10.6-18.5-21.4-37-31.7-55.7-4-.1-8.1-.3-12.1.1-.4 30.3-.1 60.9-.1 91.2h12.2c-.1-23.1.2-46.2-.4-69.3 9.1 16.7 19 33.1 28.2 49.7h7.9c9.4-16.6 18.8-33.3 28.5-49.7-.6 23.1-.1 46.3-.3 69.4 4 0 8 0 12-.1v-91.2c-4.2 0-8.2-.1-12.3-.1zm193.4 28.8c-5-.1-10-.1-15-.1-9.2 8.8-17.9 18.2-27 27.2-.1-18.6 0-37.2-.1-55.9-4.1 0-8.2 0-12.3.1v91.3c4.1 0 8.2 0 12.3.1.2-6.4-.4-12.9.2-19.3 2.2-3.7 6.1-6.6 9-9.6 6.6 9.6 12.9 19.4 19.5 28.9 5 0 9.9 0 14.8-.1l-25.8-37.5c8.2-8.4 17.1-16 24.4-25.1zm120.3-28.7c-5.9 3-5.2 13.1 1.2 15.1 3.1.5 7.2.8 9.4-1.9 2.7-2.7 2.9-7.5.9-10.7-2.4-3.6-7.9-4.5-11.5-2.5zm229.9-.1c-10.5-.1-21 .1-31.5 0v91.4c4.1 0 8.1 0 12.2.1.1-12.3 0-24.6 0-36.9 7.3-.1 14.6.2 21.9-.1 8.7-.4 17-5.5 21.9-12.7 6-9.1 5.6-22-1.2-30.5-5.5-7.3-14.3-11.3-23.3-11.3zm2.7 42.9c-7.3.8-14.7.2-22 .3v-31.5c7.3.1 14.6-.4 21.9.2 7 .5 12.6 6.9 13.8 13.6 1 7.9-5.5 16.6-13.7 17.4zm35.6-42.7c-.4 30.3-.1 60.9-.1 91.2h12.1v-91.4c-4 0-8.1-.2-12 .2zm150.2 28.5c.2-4.5-.7-11.2 2.4-14.9 3.8-4.3 8.9-3.1 13.9-2.9 1.2-3.3 2.5-6.7 3.8-10-5.2-1.2-10.3-2-15.6-.8-7.5 1.4-14.1 7.1-15.7 14.6-.8 4.6-.6 9.4-.6 14h-28.8v-18.8c-4 0-8 0-12-.1v18.9h-10.9c0 3.6-.1 7.2-.1 10.8 3.7.2 7.4.4 11 .7-.1 11.5-.1 23 0 34.5 0 6.1 2.8 12 8.2 15.1 6.9 3.8 14.3 3 21.6 1.3-1.4-3.5-2.8-7-4.3-10.4-3.3.4-6.1 1.7-9.2 0-3-1.5-4.3-4.3-4.3-7.5-.2-11.1 0-22.1-.1-33.2 9.5-.4 19.1-.7 28.6 0 .7 17.1.1 34.3.3 51.4h11.9c0-14 .1-28.1-.1-42.1.1-3.2.2-6.5.6-9.7 5.4.1 10.8.1 16.2 0-.1-3.6-.3-7.3-.7-10.9-5.3.1-10.7.1-16.1 0zm-444.6 52.1c-1.6-3.3-3.1-6.3-2.9-10 0-10.4 0-20.7.1-31h14.9c0-3.6 0-7.3-.1-11h-14.9c0-6.3.1-12.6 0-18.9h-12v18.9h-11c-.1 3.6-.1 7.2-.1 10.8 3.7.1 7.4.3 11.1.5 0 11.1-.1 22.2 0 33.3.1 6.3 1.9 12.2 7.4 15.8 7 4.4 14.7 3.8 22.4 2-1.2-3.4-2.5-6.8-3.8-10.2-3.7.3-7.3.3-11.1-.2zm-215.9-47c-4.6-4-10.6-6.7-16.8-6.8-6.4-.3-12.3-.2-18 3.1-5.1 2.7-8.2 7-11.4 11.7 3.6 1.9 7.2 3.5 11 4.8 1.9-2.2 3.9-5 6.4-6.5 7.3-4.1 17.3-2.7 22.5 4.2 2.4 3 2.3 6.2 2.8 9.8-8.1-3.4-16.8-3.9-25.4-2.6-6.4 1.3-13 5-16.5 10.6-4.7 8.1-3.4 20.4 4.4 26.2 6.6 5.6 15.2 5.8 23.3 4.5 6.1-1.2 9.9-5.1 13.9-9.5 0 2.7-.1 5.4-.1 8.1h11.7v-38.1c.2-7.3-2.3-14.5-7.8-19.5zm-9.3 43.1c-5.8 6.2-17.2 7.8-23.6 2-2.9-2.4-2.5-6.3-1.9-9.6 1.5-4.3 5.5-6.9 9.8-8 7.6-1.6 14.9-.6 21.7 3.1-.8 4.8-2.2 9.1-6 12.5zm194.4-14.5c0-8.1-.5-15.6-5.1-22.5-5.6-8.8-15-13.6-25.4-13.1-14.5-.9-26.2 10.3-29.8 23.6-2.1 8.8-1.5 19 3 27.1 4.5 8.5 13 14.7 22.7 15.5 7.5.5 14.8.6 21.3-3.6 5.4-3.2 8.9-7.6 11.3-13.3-3.4-1.4-6.9-2.8-10.4-4-2.6 3.7-4.6 7.2-9.1 8.9-7.3 2.7-16.4 1.8-21.9-4.2-4.3-3.9-5.2-8.9-6.2-14.4h49.6zm-48.8-10.1c1.7-3.6 3.1-7.2 6.1-9.9 7-6.9 20.7-6.2 26.6 1.9 1.9 2.4 2.5 5.2 3.5 8-12.1.2-24.1.1-36.2 0zm178.4-21.1c-5.9-4.7-13.3-4.9-20.5-3.8-6.3 1.3-10.6 5.2-14.8 9.7.2-2.8.3-5.6.4-8.4-3.9.1-7.9.1-11.8.2v62.4h12.1c.1-11.8-.1-23.6.1-35.4.1-7.2 4.4-14.6 11.1-17.4 5.4-1.7 12.7-.9 16.6 3.5 3.6 4.1 4 10 4 15.2 0 11.4-.1 22.7 0 34.1 4 0 8 0 12-.1v-38c-.1-8.3-2.4-16.6-9.2-22zm80.5-2.5c-3.7.1-7.5.1-11.2.1-.1 2.8-.1 5.6-.2 8.5-3.7-3.9-7.3-7.4-12.5-9.1-9.5-2.8-19.9-1.4-27.3 5.6-11.2 9.3-13.7 24.6-9.9 38.1 3 9.6 10.8 18.1 20.6 20.8 6.5 1.2 14.5 1.3 20.4-2.1 3.5-1.9 6-4.6 8.8-7.3-.1 6 .3 11.9-2.7 17.3-5.1 9.5-18.6 12.6-27.6 6.9-3.7-2.2-5.7-5.5-7.9-9.1-3.6 1.4-7.2 2.7-10.7 4.2 3 7.7 9.4 14.1 17.1 17 12.2 4 26.8 1.3 35.7-8.4 6.3-6.5 7.7-15.5 7.6-24.3-.1-19.5.2-38.9-.2-58.2zm-18.1 48.9c-5.9 5.9-16.8 6.4-23.5 1.7-13.1-8.9-12-32.7 2.6-39.7 9.6-4.8 21.7.2 25.7 10 3.6 8.7 2.8 21.4-4.8 28zm209.1-36.7c-3.4-7.3-11.3-12.5-19.1-13.7-7.5-.6-14.9-1-21.5 3.2-4.8 2.7-7.8 6.9-10.8 11.5 3.6 1.8 7.3 3.3 11 4.6 2.5-3.1 4.5-6.1 8.4-7.6 6.5-2.4 14.4-1.4 19.2 4 3.2 3.1 3.4 6.8 4 11-8.2-3.4-17.1-3.9-25.8-2.5-6.8 1.5-14 5.7-17 12.2-2 4-1.9 8.1-1.6 12.4.6 6.1 4.9 11.4 10.2 14.3 5.7 3.4 13.5 3.3 19.9 2.4 6.1-1.1 10-5 14.1-9.3v8c3.9 0 7.9 0 11.8-.1 0-11.3-.1-22.7 0-34 0-5.4-.4-11.4-2.8-16.4zm-15.8 37.2c-6.2 5.4-18.1 6.5-23.5-.6-4-5.2.2-12.5 5.4-14.9 8.1-3.5 17.4-2.2 25.2 1.5-.7 5.7-2.6 10.4-7.1 14zm162.1-44.2c-8.3-7.3-18.9-8-29.4-6.2-8.8 2.3-16.4 8.6-20.2 16.9-3.3 6.5-3.6 13.6-3 20.8 1.3 12.1 10.1 23.5 22 26.9 4.9 1.2 10.2 1.2 15.2.8 11.2-.8 21.1-9.5 24.9-19.9 4.6-13.5 2-30.1-9.5-39.3zm-18.1 48.4c-11.6 1.7-21.5-7.2-22.6-18.5-1.6-11.1 4.1-22.3 15.3-25.5 11.2-2.9 22.5 5.2 24.5 16.3 2.7 12.1-3.8 26.2-17.2 27.7zm61.3-53.3c-4.8 1.9-8 5.5-11 9.6.1-3.2.1-6.5.1-9.7-3.7 0-7.4 0-11.1-.1-.3 20.9 0 41.8-.1 62.7h12c.1-11.8-.1-23.6.1-35.4.1-6.5 3.8-12.5 9.7-15.3 4-2.2 8.6-1.2 12.9-1 1.5-3.7 2.9-7.4 4.2-11.1-5.8-1.5-11.3-2.3-16.8.3zm115.8 7.6c-2.9-5.1-7.9-8.7-13.8-9.4-5.4-.5-11.3-.7-16.3 1.9-4.4 2-7.3 5.3-10.4 8.8-3.8-6-8.6-10.5-16-10.9-9.7-1.3-18.1 2.8-23.4 10.8 0-3 0-6.1-.1-9.1-3.7 0-7.4-.1-11.1-.1-.8 6.9-.5 13.7-.5 20.6v42.1h12.3c.1-11.4-.1-22.7 0-34.1-.2-7.4 3.8-15.7 10.8-18.7 5.6-1.9 13.1-.8 16.4 4.6 2.2 4.6 2.4 10.4 2.5 15.4v32.7h11.6c.1-10.9-.1-21.8 0-32.7.1-7.2 2.5-14.2 8.4-18.5 6.9-4.8 18.7-2.4 20.4 6.8 2.5 14.5.7 29.8 1.3 44.6 4 0 7.9-.1 11.9-.1v-35.4c-.2-6.3-.7-13.7-4-19.3zm-848.7-7.9c-4.9 1.8-8 4.9-10.8 9.3l-.9-9.3c-3.6 0-7.3-.1-10.9.2-.6 20.8-.1 41.7-.2 62.5h12.1c.1-11.8-.1-23.6 0-35.4.1-6.4 3.8-12.4 9.6-15.3 4-2.2 8.7-1.3 13-1.2 1.5-3.7 3-7.3 4.4-11-5.6-1.2-10.9-2.1-16.3.2zm198 0c-.3 20.9-.1 41.8-.1 62.7h11.5c0-20.9.1-41.8 0-62.6-3.9 0-7.7-.1-11.4-.1z"/></g><g id="Icon"><path class="st2" d="M784.3 65.9c17.4 17.4 17.4 45.7 0 63.2-8.7 8.7-8.7 22.9 0 31.6 8.7 8.7 22.9 8.7 31.6 0 34.9-34.9 34.9-91.5 0-126.4l-31.6 31.6z"/><linearGradient id="SVGID_1_" gradientUnits="userSpaceOnUse" x1="663.325" y1="84.412" x2="822.425" y2="84.412"><stop offset="0" stop-color="#246fdb"/><stop offset=".055" stop-color="#2973df"/><stop offset=".278" stop-color="#377deb"/><stop offset=".549" stop-color="#3f83f2"/><stop offset="1" stop-color="#4285f4"/></linearGradient><path class="st3" d="M689.5 34.3c-34.9 34.9-34.9 91.5 0 126.4l31.6-31.6c-17.4-17.4-17.4-45.7 0-63.2 17.4-17.4 45.7-17.4 63.2 0 8.7 8.7 22.9 8.7 31.6 0 8.7-8.7 8.7-22.9 0-31.6C781-.6 724.4-.6 689.5 34.3z"/><path class="st4" d="M815.9 160.7l-31.6-31.6c-17.4 17.4-45.7 17.4-63.2 0l-31.6 31.6c34.9 34.8 91.5 34.8 126.4 0z"/><circle class="st2" cx="800.1" cy="144.9" r="22.3"/><circle class="st5" cx="705.3" cy="144.9" r="22.3"/></g></svg>